<svg xmlns="http://www.w3.org/2000/svg" width="1452" height="1028" viewBox="0 0 1452 1028" role="img" aria-label="Across China: Traditional Chinese instrument strikes chord with contemporary life">
  <rect width="1452" height="1028" fill="#ffffff"/>
  <rect x="0" y="206" width="1452" height="822" fill="#f7f7f8"/>
  <rect x="70" y="26" width="148" height="148" rx="24" fill="#1765b6"/>
  <text x="95" y="80" fill="#ffffff" font-family="Georgia, serif" font-weight="700" font-size="28">XINHUA</text>
  <text x="112" y="106" fill="#ffffff" font-family="Georgia, serif" font-weight="700" font-size="25">NEWS</text>
  <circle cx="144" cy="146" r="34" fill="none" stroke="#ffffff" stroke-width="3"/>
  <path d="M87 149c35-22 75-25 119 0M108 134l36 12 39-12M96 161l48-15 50 15" fill="none" stroke="#ffffff" stroke-width="2"/>
  <text x="268" y="93" fill="#1f1f21" font-family="Georgia, serif" font-weight="700" font-size="64">Xinhua News</text>
  <text x="270" y="149" fill="#9f9f9f" font-family="Georgia, serif" font-size="46">Window on China &amp; the World</text>
  <rect x="1165" y="58" width="220" height="100" fill="#2a70cf"/>
  <text x="1212" y="129" fill="#ffffff" font-family="Georgia, serif" font-weight="700" font-size="54">Open</text>
  <text x="46" y="407" fill="#171719" font-family="Georgia, serif" font-weight="700" font-size="104">Across China: Traditional</text>
  <text x="46" y="544" fill="#171719" font-family="Georgia, serif" font-weight="700" font-size="104">Chinese instrument</text>
  <text x="46" y="680" fill="#171719" font-family="Georgia, serif" font-weight="700" font-size="104">strikes chord with</text>
  <text x="46" y="816" fill="#171719" font-family="Georgia, serif" font-weight="700" font-size="104">contemporary life</text>
  <text x="46" y="931" fill="#808080" font-family="Georgia, serif" font-size="48">Xinhua</text>
  <text x="46" y="996" fill="#808080" font-family="Georgia, serif" font-size="48">Published: 2023-07-03 20:00:16</text>
</svg>
